<?xml version="1.0" standalone="no"?>
<!DOCTYPE svg PUBLIC "-//W3C//DTD SVG 20010904//EN"
 "http://www.w3.org/TR/2001/REC-SVG-20010904/DTD/svg10.dtd">
<svg version="1.0" xmlns="http://www.w3.org/2000/svg"
 width="2400.000000pt" height="2400.000000pt" viewBox="0 0 2400.000000 2400.000000"
 preserveAspectRatio="xMidYMid meet">
<metadata>
Created by potrace 1.14, written by Peter Selinger 2001-2017
</metadata>
<g transform="translate(0.000000,2400.000000) scale(0.100000,-0.100000)"
fill="#000000" stroke="none">
<path d="M12038 22523 c7 -3 16 -2 19 1 4 3 -2 6 -13 5 -11 0 -14 -3 -6 -6z"/>
<path d="M12380 22520 c0 -5 -74 -11 -177 -13 -98 -2 -200 -9 -228 -15 -118
-24 -128 -25 -121 -14 4 7 1 12 -9 12 -11 0 -15 -5 -12 -14 6 -15 -11 -24
-109 -61 -34 -13 -79 -34 -100 -48 -49 -32 -90 -45 -79 -26 5 8 4 11 -1 6 -5
-5 -9 -14 -9 -19 0 -6 -6 -13 -14 -16 -9 -3 -11 0 -6 8 5 8 4 11 -3 6 -6 -4
-9 -12 -7 -19 3 -7 -11 -22 -30 -34 -40 -27 -53 -29 -35 -8 21 25 -6 17 -37
-11 -18 -16 -22 -24 -10 -20 23 7 22 -11 -2 -24 -25 -13 -34 -13 -26 0 3 6 2
10 -3 10 -13 0 -92 -70 -92 -82 0 -6 10 -3 23 8 45 38 -26 -38 -195 -207 -92
-93 -180 -188 -196 -211 -29 -41 -66 -78 -78 -78 -3 0 -2 5 1 10 10 16 -11 12
-25 -5 -11 -14 -7 -19 13 -16 11 2 -100 -171 -150 -234 -54 -66 -235 -407
-258 -485 -4 -14 -25 -60 -46 -102 -22 -43 -55 -127 -75 -187 -29 -89 -39
-109 -53 -104 -13 5 -14 3 -3 -8 6 -7 12 -20 12 -28 0 -14 -2 -14 -10 -1 -5 8
-12 11 -16 7 -4 -3 -1 -13 6 -22 11 -13 10 -14 -4 -9 -11 4 -16 1 -16 -10 0
-9 5 -16 10 -16 13 0 13 -40 0 -60 -6 -10 -10 -11 -10 -2 0 6 -4 12 -10 12 -5
0 -10 -7 -10 -15 0 -8 5 -15 10 -15 14 0 12 -52 -2 -87 -7 -16 -19 -28 -25
-26 -7 3 -13 -2 -13 -11 0 -9 5 -16 10 -16 11 0 13 -33 4 -67 -4 -13 -11 -20
-20 -16 -9 3 -14 -2 -14 -16 0 -12 5 -21 10 -21 12 0 13 -70 1 -89 -5 -7 -14
-10 -20 -7 -7 5 -11 -2 -11 -18 0 -14 5 -26 10 -26 12 0 13 -149 1 -169 -5 -7
-14 -10 -20 -7 -7 5 -11 -8 -11 -38 0 -25 5 -46 10 -46 7 0 10 -284 10 -831 0
-716 -2 -830 -14 -820 -11 10 -16 8 -21 -8 -3 -12 -10 -21 -15 -21 -5 0 -7 -6
-4 -14 4 -10 -5 -16 -27 -21 -22 -5 -34 -4 -37 4 -4 12 -31 15 -56 5 -8 -3
-12 -12 -10 -19 3 -8 -4 -16 -17 -20 -14 -5 -25 -3 -27 4 -2 6 -8 11 -13 11
-4 0 -6 -6 -3 -14 3 -9 -3 -17 -17 -21 -14 -5 -25 -3 -27 4 -2 6 -8 11 -14 11
-6 0 -8 -6 -5 -14 6 -16 -101 -69 -144 -70 -15 -1 -27 -4 -26 -8 1 -4 -38 -27
-86 -51 -48 -24 -86 -38 -83 -31 3 9 -8 7 -36 -5 -23 -10 -44 -23 -46 -30 -3
-10 0 -11 19 -1 l24 13 -19 -22 c-11 -12 -54 -45 -95 -73 -42 -28 -82 -59 -88
-69 -7 -9 -34 -31 -60 -47 -57 -35 -218 -196 -271 -269 -127 -176 -198 -264
-186 -230 3 9 2 17 -4 17 -15 0 -22 -26 -11 -37 7 -7 -6 -41 -36 -99 -25 -49
-54 -113 -65 -142 -11 -29 -31 -74 -44 -100 -27 -55 -61 -159 -71 -217 -4 -22
-11 -53 -15 -70 -5 -16 -14 -49 -20 -72 -8 -33 -14 -41 -27 -36 -13 5 -15 2
-9 -18 15 -48 18 -80 11 -116 -4 -21 -10 -32 -12 -25 -3 6 -9 12 -14 12 -12 0
-12 -76 0 -99 6 -10 11 -134 12 -277 1 -157 5 -264 11 -271 8 -10 271 -13
1254 -13 1116 0 1244 -2 1258 -16 14 -14 16 -257 16 -2523 0 -2417 -1 -2509
-18 -2524 -10 -10 -32 -17 -48 -17 -60 0 -98 -22 -56 -33 9 -3 0 -5 -20 -6
-20 0 -40 3 -43 9 -8 13 -86 13 -134 1 -20 -6 -57 -15 -83 -22 -27 -6 -48 -16
-48 -21 0 -6 -7 -8 -15 -4 -8 3 -15 1 -15 -5 0 -7 12 -8 33 -4 57 13 22 -5
-51 -25 -75 -21 -101 -25 -67 -10 16 7 11 9 -21 9 -45 1 -103 -35 -75 -46 9
-4 3 -10 -19 -19 -18 -8 -35 -12 -38 -9 -3 2 6 9 19 14 13 5 17 10 9 10 -8 0
-26 -6 -40 -14 -14 -8 -19 -14 -12 -15 21 0 13 -16 -13 -28 -32 -15 -48 -15
-40 -2 9 15 -8 12 -31 -5 -19 -14 -19 -14 1 -15 14 0 7 -8 -23 -25 -24 -14
-56 -34 -72 -45 -34 -24 -41 -25 -33 -4 5 14 2 14 -28 -1 -45 -23 -69 -45 -69
-63 0 -12 3 -12 18 -2 9 7 -7 -11 -37 -39 -51 -47 -81 -63 -50 -25 30 36 -32
-10 -87 -65 -57 -58 -76 -95 -22 -45 l31 29 -34 -45 c-56 -75 -91 -109 -105
-103 -8 3 -14 0 -14 -7 0 -6 5 -8 10 -5 20 12 9 -8 -34 -64 -25 -32 -57 -84
-73 -117 -16 -32 -41 -77 -55 -100 -14 -22 -33 -61 -41 -86 -9 -24 -25 -64
-36 -89 -11 -24 -28 -70 -37 -102 -12 -46 -18 -56 -29 -47 -10 8 -15 6 -20 -9
-4 -13 -20 -24 -43 -31 -20 -5 -50 -19 -67 -30 -25 -17 -27 -20 -10 -20 11 0
-7 -12 -40 -26 -107 -45 -116 -48 -125 -34 -6 9 -14 8 -36 -4 l-29 -16 30 6
c28 6 29 5 10 -8 -11 -8 -46 -26 -77 -41 -45 -20 -55 -22 -51 -9 5 12 -4 10
-37 -9 -24 -13 -46 -30 -48 -38 -3 -8 0 -11 7 -7 24 15 9 -3 -16 -20 -24 -15
-26 -15 -14 -1 12 15 11 17 -7 17 -12 0 -26 -10 -33 -22 -10 -18 -9 -20 7 -14
12 4 6 -6 -14 -24 -22 -21 -40 -29 -52 -25 -10 3 -21 1 -25 -4 -4 -7 1 -8 12
-4 26 9 -46 -65 -81 -84 -15 -8 -25 -10 -22 -4 18 28 -19 6 -71 -43 -49 -46
-56 -56 -44 -69 11 -14 6 -23 -34 -64 -26 -26 -44 -39 -41 -29 6 16 4 17 -9 6
-12 -10 -13 -15 -4 -21 9 -5 -2 -28 -38 -81 -87 -127 -212 -388 -213 -444 0
-27 -42 -123 -47 -108 -3 9 -12 9 -32 1 -16 -6 -27 -16 -24 -23 6 -17 -57 -30
-67 -13 -16 26 -206 -30 -196 -58 3 -7 1 -13 -4 -13 -6 0 -10 5 -10 10 0 6 -5
10 -11 10 -6 0 -9 -6 -6 -14 8 -19 -98 -62 -117 -47 -19 16 -70 -4 -62 -24 4
-10 -10 -23 -44 -40 -54 -27 -64 -30 -55 -15 3 6 -1 7 -10 3 -12 -4 -13 -8 -4
-13 8 -6 2 -13 -19 -24 -36 -18 -46 -20 -37 -6 9 14 -17 12 -37 -4 -25 -19
-22 -29 5 -15 43 22 -24 -35 -78 -66 -44 -25 -48 -26 -31 -7 22 26 10 29 -23
6 -18 -13 -20 -18 -10 -26 11 -7 2 -19 -36 -53 -27 -25 -55 -45 -61 -45 -18 0
-259 -249 -293 -302 -17 -26 -40 -53 -51 -60 -17 -11 -151 -221 -208 -328 -23
-42 -108 -261 -125 -320 -28 -101 -57 -225 -58 -250 -1 -30 -27 -103 -28 -77
-1 9 -5 17 -11 17 -13 0 -13 -33 0 -46 7 -7 10 -57 8 -129 l-3 -118 -35 -2
c-19 -1 -68 11 -108 26 -65 25 -97 45 -168 109 -40 36 -77 101 -95 167 -18 65
-19 180 -19 3518 0 3145 1 3456 16 3506 46 154 126 236 283 290 52 18 127 19
2206 19 l2152 0 21 23 c22 23 22 26 22 424 0 380 -1 401 -19 417 -10 10 -21
14 -22 9 -5 -10 -4325 2 -4390 12 -50 7 -104 -10 -79 -25 25 -15 -40 -29 -72
-16 -10 5 -23 6 -30 3 -7 -3 -2 -6 12 -7 14 -1 -14 -13 -65 -30 -50 -15 -122
-45 -160 -66 -39 -21 -88 -47 -111 -58 -123 -63 -306 -236 -399 -376 -96 -146
-138 -239 -169 -375 -16 -66 -32 -133 -37 -149 -13 -40 -12 -7133 1 -7188 5
-24 16 -77 25 -118 34 -154 98 -308 161 -387 19 -22 38 -53 44 -69 10 -25 9
-26 -6 -13 -16 13 -16 12 -4 -11 22 -41 212 -240 250 -262 35 -19 112 -65 211
-126 52 -31 207 -83 334 -113 46 -11 178 -14 572 -17 l511 -2 21 26 c21 26 21
35 21 535 0 332 4 525 11 556 23 103 71 249 88 273 10 14 27 47 39 73 37 84
128 210 195 272 180 165 224 198 354 264 100 50 220 90 329 110 35 6 180 11
347 11 274 0 288 1 307 20 19 19 20 33 20 288 0 255 1 272 23 338 13 38 27 87
31 109 10 51 40 109 85 164 68 83 156 174 191 197 19 13 46 33 60 44 23 18 64
36 248 106 61 23 72 24 337 24 208 0 276 3 282 13 4 6 11 127 15 267 3 140 11
282 16 315 13 77 81 244 118 291 16 20 35 46 43 58 29 43 158 169 206 201 74
49 281 115 361 115 52 0 65 -3 74 -19 6 -13 10 -160 10 -408 0 -289 3 -392 12
-401 19 -19 831 -17 847 2 8 10 10 1021 9 3847 l-3 3834 -25 -2 c-14 -1 -19 1
-12 3 6 3 10 10 6 15 -3 5 -486 9 -1194 9 -653 0 -1195 3 -1204 6 -25 10 -20
29 35 127 78 142 90 160 151 228 207 234 439 374 694 420 32 6 82 16 109 21
28 6 168 12 312 15 197 3 264 7 272 17 7 9 12 397 15 1267 2 811 7 1279 14
1324 6 39 15 106 20 150 5 44 14 90 20 102 7 12 12 38 12 57 0 20 22 96 49
168 27 73 54 151 61 173 20 63 86 223 97 237 6 7 30 51 53 97 40 80 108 182
130 196 6 4 22 30 36 58 30 58 93 132 270 310 255 258 331 306 494 314 84 4
86 4 175 -40 50 -25 107 -61 128 -81 20 -20 41 -36 46 -36 14 0 353 -341 386
-389 17 -24 44 -67 60 -95 17 -29 40 -66 53 -82 75 -96 197 -326 242 -459 16
-44 39 -107 53 -140 25 -58 62 -200 77 -295 10 -61 20 -82 36 -76 10 4 14 -3
14 -19 0 -14 -4 -25 -10 -25 -11 0 -13 -42 -4 -77 4 -13 11 -20 20 -16 11 4
14 -5 14 -40 0 -25 -4 -49 -10 -52 -7 -4 -10 -436 -10 -1264 0 -1018 2 -1261
13 -1269 8 -7 109 -13 272 -15 240 -4 323 -11 430 -35 166 -38 279 -83 360
-142 22 -16 63 -42 91 -57 76 -41 250 -214 304 -301 93 -150 139 -238 137
-257 -2 -20 -10 -20 -1209 -23 -794 -1 -1208 -5 -1208 -12 0 -6 5 -10 12 -10
6 0 3 -6 -7 -14 -11 -8 -23 -12 -27 -10 -5 3 -8 -1522 -8 -3388 0 -1897 4
-3387 9 -3379 6 9 11 10 15 2 4 -6 4 -15 1 -21 -4 -7 141 -10 427 -10 365 -1
439 -3 473 -16 22 -9 72 -19 110 -24 136 -16 241 -48 374 -115 71 -35 153 -81
182 -102 67 -47 265 -247 286 -288 9 -16 35 -56 59 -88 24 -33 44 -65 44 -72
0 -6 10 -32 23 -56 13 -24 32 -65 42 -91 18 -48 29 -59 38 -35 2 6 8 0 12 -16
5 -17 3 -33 -5 -42 -8 -9 -10 -26 -6 -42 15 -62 28 -230 34 -450 4 -127 10
-235 15 -239 4 -4 7 4 8 17 0 15 3 18 6 9 3 -8 12 -21 21 -27 10 -8 11 -13 4
-13 -7 0 -12 -4 -12 -9 0 -6 95 -12 223 -14 250 -6 304 -12 433 -55 107 -35
114 -39 219 -107 111 -73 223 -198 257 -287 10 -27 25 -59 32 -71 7 -12 22
-44 32 -72 10 -27 24 -61 32 -75 13 -24 13 -24 8 10 l-6 35 14 -35 c17 -41 20
-63 7 -56 -15 9 -21 -80 -21 -303 0 -154 4 -223 13 -241 l13 -25 259 -6 c330
-9 366 -14 482 -73 51 -25 99 -46 107 -46 13 0 65 -40 141 -109 11 -10 40 -44
65 -75 25 -31 64 -79 86 -105 40 -47 62 -102 93 -226 28 -117 31 -166 31 -592
0 -387 2 -444 15 -440 18 7 30 -9 13 -16 -10 -4 -9 -8 2 -16 23 -17 1010 -9
1070 8 261 74 430 148 540 235 53 43 206 199 282 288 64 77 161 293 200 447
31 124 32 229 32 3716 0 3427 -1 3580 -29 3695 -4 14 -11 45 -17 70 -20 87
-51 166 -100 257 -27 51 -53 95 -59 98 -5 4 -27 34 -49 67 -47 73 -159 192
-200 213 -16 8 -33 21 -37 27 -4 7 -35 31 -68 52 -33 22 -76 50 -95 62 -50 33
-141 73 -181 80 -26 4 -31 3 -19 -5 20 -15 -26 -5 -95 21 -46 17 -40 17 25 2
14 -3 5 4 -19 16 -31 14 -48 17 -55 10 -5 -5 -19 -10 -31 -9 -20 0 -20 0 0 9
19 8 18 10 -2 14 -5 1 -19 8 -31 15 -17 9 -42 11 -85 6 -34 -4 -1028 -10
-2209 -13 -1892 -6 -2149 -9 -2162 -22 -13 -13 -16 -74 -16 -422 -1 -225 2
-412 5 -418 4 -7 722 -10 2158 -10 2326 0 2195 3 2286 -51 57 -35 140 -120
169 -174 l27 -50 0 -3530 0 -3530 -28 -57 c-43 -87 -114 -160 -189 -192 -35
-15 -76 -34 -93 -41 -35 -16 -63 -5 -69 28 -3 12 -7 49 -10 82 -15 159 -29
231 -81 400 -29 96 -172 392 -200 415 -9 7 -23 27 -32 44 -52 101 -329 376
-379 376 -3 0 -3 -7 0 -16 4 -11 -2 -10 -24 6 -17 12 -30 24 -30 28 0 3 5 1
12 -6 19 -19 30 -14 18 8 -6 11 -17 20 -25 20 -8 0 -15 5 -15 10 0 6 -12 16
-27 22 -16 7 -53 30 -83 52 -30 22 -84 52 -120 67 -36 14 -84 36 -106 47 -22
11 -80 32 -128 46 -49 14 -91 28 -94 30 -2 3 -8 22 -12 43 -4 21 -24 76 -45
123 -20 47 -45 108 -56 137 -11 28 -28 62 -38 75 -10 13 -35 57 -55 98 -21 41
-48 86 -61 100 -12 14 -32 43 -43 65 -19 38 -190 210 -299 302 -109 91 -385
245 -488 271 -22 6 -69 21 -105 34 -73 27 -67 17 -115 205 -13 50 -28 100 -34
112 -6 11 -29 70 -51 131 -43 120 -117 251 -258 456 -88 129 -356 394 -465
460 -27 16 -64 42 -83 58 -122 102 -657 323 -672 278 -2 -7 -13 -11 -25 -11
-17 1 -18 2 -4 6 44 11 7 28 -121 53 -67 13 -152 13 -152 0 0 -5 -15 -10 -32
-10 -24 0 -29 3 -18 10 22 14 7 21 -57 29 -32 4 -64 10 -71 14 -17 12 -18
5037 0 5055 9 9 301 12 1253 12 904 0 1244 3 1252 11 6 6 9 18 6 25 -4 10 0
12 11 8 15 -6 16 23 13 357 -4 367 -8 410 -47 544 -11 39 -27 99 -36 135 -28
122 -167 406 -273 561 -24 35 -54 78 -65 94 -11 17 -44 55 -74 86 -29 30 -67
77 -85 104 -18 26 -48 56 -67 66 -19 11 -66 50 -105 87 -38 38 -90 81 -115 97
-25 17 -67 46 -95 66 -27 19 -79 51 -115 69 -36 19 -77 44 -92 56 -15 12 -49
30 -75 39 -26 9 -93 34 -148 55 -55 21 -134 46 -175 56 -61 14 -120 35 -132
47 -1 1 -6 425 -9 942 -4 517 -11 976 -17 1020 -10 81 -25 173 -41 255 -13 66
-79 314 -95 357 -8 21 -22 61 -32 88 -43 127 -68 186 -85 201 -10 9 -21 30
-25 47 -9 42 -119 273 -148 311 -13 17 -35 54 -49 81 -13 28 -35 59 -47 70
-12 11 -31 38 -42 60 -24 46 -87 134 -112 154 -10 8 -24 28 -33 45 -25 49 -87
119 -254 285 -163 163 -246 239 -309 281 -20 14 -61 43 -90 65 -110 82 -250
153 -250 126 0 -5 9 -13 21 -16 11 -4 19 -9 17 -11 -6 -5 -111 36 -123 48 -7
8 -6 9 3 4 6 -4 12 -3 12 3 0 14 -25 26 -88 42 -44 11 -55 11 -62 0 -6 -11
-16 -11 -46 -3 -38 10 -38 10 -9 12 26 1 27 3 10 10 -28 12 -85 12 -85 0z
m2546 -4716 c18 -14 18 -14 -6 -3 -31 14 -36 19 -24 19 6 0 19 -7 30 -16z
m429 -305 c31 -32 34 -38 13 -25 -22 15 -66 66 -55 66 2 0 21 -19 42 -41z
m160 -159 c10 -11 16 -20 13 -20 -3 0 -13 9 -23 20 -10 11 -16 20 -13 20 3 0
13 -9 23 -20z m-1438 -7046 c-3 -3 -12 -4 -19 -1 -8 3 -5 6 6 6 11 1 17 -2 13
-5z m-5597 -1688 c0 -2 -8 -10 -17 -17 -16 -13 -17 -12 -4 4 13 16 21 21 21
13z m7301 -44 c-7 -2 -18 1 -23 6 -8 8 -4 9 13 5 13 -4 18 -8 10 -11z m-10381
-3379 c0 -8 -9 0 -50 45 l-45 47 48 -45 c26 -24 47 -45 47 -47z"/>
<path d="M11650 22410 c0 -5 5 -10 11 -10 5 0 7 5 4 10 -3 6 -8 10 -11 10 -2
0 -4 -4 -4 -10z"/>
<path d="M10910 21785 c-7 -9 -11 -18 -8 -20 3 -3 11 1 18 10 7 9 11 18 8 20
-3 3 -11 -1 -18 -10z"/>
<path d="M10634 21408 c-4 -7 -14 -24 -22 -38 -14 -24 -13 -24 3 -5 20 24 37
55 31 55 -3 0 -8 -6 -12 -12z"/>
<path d="M10252 20610 c-6 -10 -8 -21 -3 -24 5 -3 11 4 14 16 8 29 4 32 -11 8z"/>
<path d="M10195 20410 c3 -5 8 -10 11 -10 2 0 4 5 4 10 0 6 -5 10 -11 10 -5 0
-7 -4 -4 -10z"/>
<path d="M12028 20173 c6 -2 18 -2 25 0 6 3 1 5 -13 5 -14 0 -19 -2 -12 -5z"/>
<path d="M12388 20173 c6 -2 18 -2 25 0 6 3 1 5 -13 5 -14 0 -19 -2 -12 -5z"/>
<path d="M12438 20163 c7 -3 16 -2 19 1 4 3 -2 6 -13 5 -11 0 -14 -3 -6 -6z"/>
<path d="M11940 20122 c-118 -48 -153 -66 -212 -109 -39 -28 -47 -31 -50 -17
-2 14 -8 13 -35 -10 -34 -29 -44 -52 -18 -42 21 8 4 -24 -40 -72 -53 -60 -113
-160 -142 -238 -16 -43 -30 -68 -35 -61 -4 6 -10 8 -14 4 -4 -3 -1 -13 6 -22
17 -20 5 -66 -15 -59 -11 5 -15 -1 -15 -19 0 -14 5 -29 10 -32 6 -3 10 -48 10
-100 0 -52 -4 -97 -10 -100 -16 -10 -11 -52 14 -145 30 -110 44 -141 98 -222
111 -165 188 -238 328 -308 165 -83 198 -90 419 -90 209 0 220 2 326 57 33 17
71 34 85 38 67 20 267 202 302 274 12 25 31 60 44 76 20 28 44 93 58 155 3 14
14 59 25 100 13 46 21 106 21 155 0 77 -4 103 -34 210 -8 28 -22 77 -31 110
-10 33 -27 74 -39 90 -12 17 -32 51 -44 76 -21 42 -118 144 -204 210 -39 30
-240 129 -263 129 -10 0 -13 -5 -9 -11 5 -9 -1 -10 -22 -4 -16 5 -117 10 -224
12 l-195 3 -95 -38z m660 -22 c22 -11 40 -23 40 -25 0 -5 -79 32 -89 41 -11
10 14 2 49 -16z m-1193 -952 c-3 -8 -6 -5 -6 6 -1 11 2 17 5 13 3 -3 4 -12 1
-19z"/>
<path d="M11744 20060 c-12 -4 -24 -16 -27 -25 -6 -14 -4 -14 23 2 17 9 30 21
30 25 0 9 1 9 -26 -2z"/>
<path d="M11452 19715 c-17 -37 -14 -45 4 -12 9 16 14 31 11 33 -2 2 -9 -7
-15 -21z"/>
<path d="M11405 19600 c3 -5 8 -10 11 -10 2 0 4 5 4 10 0 6 -5 10 -11 10 -5 0
-7 -4 -4 -10z"/>
<path d="M9895 17970 c3 -5 8 -10 11 -10 2 0 4 5 4 10 0 6 -5 10 -11 10 -5 0
-7 -4 -4 -10z"/>
<path d="M9770 17930 c0 -5 5 -10 10 -10 6 0 10 5 10 10 0 6 -4 10 -10 10 -5
0 -10 -4 -10 -10z"/>
<path d="M9079 17508 l-22 -33 31 29 c34 32 37 36 23 36 -5 0 -20 -15 -32 -32z"/>
<path d="M8920 17355 c-13 -14 -21 -27 -18 -30 2 -3 15 6 28 20 13 14 21 27
18 30 -2 3 -15 -6 -28 -20z"/>
<path d="M8501 16634 c0 -11 3 -14 6 -6 3 7 2 16 -1 19 -3 4 -6 -2 -5 -13z"/>
<path d="M10058 10144 c-16 -8 -28 -19 -28 -25 0 -12 31 4 50 25 15 19 13 19
-22 0z"/>
<path d="M9520 9628 c-12 -22 -12 -22 6 -6 10 10 15 20 12 24 -4 3 -12 -5 -18
-18z"/>
<path d="M9484 9575 c-9 -14 -14 -28 -11 -31 3 -3 13 8 22 25 19 37 12 41 -11
6z"/>
<path d="M9400 9420 c-7 -17 -10 -33 -8 -36 3 -3 11 9 17 27 14 42 7 49 -9 9z"/>
<path d="M9325 9240 c3 -5 8 -10 11 -10 2 0 4 5 4 10 0 6 -5 10 -11 10 -5 0
-7 -4 -4 -10z"/>
<path d="M9300 9181 c0 -6 5 -13 10 -16 6 -3 10 1 10 9 0 9 -4 16 -10 16 -5 0
-10 -4 -10 -9z"/>
<path d="M14720 8610 c0 -5 5 -10 10 -10 6 0 10 5 10 10 0 6 -4 10 -10 10 -5
0 -10 -4 -10 -10z"/>
<path d="M7630 7690 c0 -5 5 -10 10 -10 6 0 10 5 10 10 0 6 -4 10 -10 10 -5 0
-10 -4 -10 -10z"/>
<path d="M7430 7600 c-19 -11 -30 -19 -25 -19 6 0 26 8 45 19 19 11 31 19 25
19 -5 0 -26 -8 -45 -19z"/>
<path d="M6993 7318 c-23 -30 -24 -41 -2 -21 12 12 20 25 17 28 -3 3 -10 0
-15 -7z"/>
<path d="M6640 6929 c0 -5 5 -7 10 -4 6 3 10 8 10 11 0 2 -4 4 -10 4 -5 0 -10
-5 -10 -11z"/>
<path d="M5080 5585 c0 -12 43 -89 71 -128 39 -54 37 -39 -5 32 -19 32 -37 68
-41 80 -5 18 -25 30 -25 16z"/>
<path d="M10970 4832 c14 -6 14 -9 -2 -24 -16 -16 -17 -16 -21 0 -3 9 -5 -449
-6 -1019 -1 -1032 -1 -1036 -22 -1063 -13 -17 -16 -26 -8 -26 9 0 10 -3 3 -10
-6 -6 -373 -11 -1039 -12 l-1030 -3 -3 -393 -2 -392 26 -10 c17 -7 1207 -10
3399 -10 2825 0 3375 2 3384 14 8 9 10 126 9 405 l-3 391 -1057 0 c-690 0
-1059 4 -1063 10 -3 6 -1 10 5 10 7 0 5 7 -4 16 -14 14 -16 124 -16 1059 0
1022 0 1045 -19 1055 -24 12 -843 14 -823 1 10 -6 10 -10 -2 -20 -11 -9 -15
-9 -19 1 -3 7 -6 -453 -6 -1023 l-1 -1036 -25 -27 c-13 -14 -19 -26 -14 -26 6
0 7 -4 4 -10 -8 -13 -764 -13 -785 0 -13 8 -12 10 3 10 15 0 15 2 -3 20 -20
20 -20 33 -20 1058 0 794 -3 1041 -12 1050 -9 9 -117 12 -428 11 -228 0 -408
-3 -400 -7z m810 -12 c0 -5 -2 -10 -4 -10 -3 0 -8 5 -11 10 -3 6 -1 10 4 10 6
0 11 -4 11 -10z m1710 0 c0 -5 -7 -7 -15 -4 -8 4 -15 8 -15 10 0 2 7 4 15 4 8
0 15 -4 15 -10z"/>
</g>
</svg>
