<?xml version="1.0" encoding="iso-8859-1"?>
<!-- Uploaded to: SVG Repo, www.svgrepo.com, Generator: SVG Repo Mixer Tools -->
<!DOCTYPE svg PUBLIC "-//W3C//DTD SVG 1.1//EN" "http://www.w3.org/Graphics/SVG/1.1/DTD/svg11.dtd">
<svg fill="#000000" version="1.1" id="Capa_1" xmlns="http://www.w3.org/2000/svg" xmlns:xlink="http://www.w3.org/1999/xlink" 
	 width="800px" height="800px" viewBox="0 0 415.769 415.77"
	 xml:space="preserve">
<g>
	<g>
		<path d="M346.386,274.472c3.609-8.377,3.902-15.961,0.891-22.586c-1.172-2.585-2.868-4.996-5.021-7.149
			c-3.621-3.62-7.871-5.886-10.941-7.184c2.357-8.145,1.752-15.261-1.791-21.177c-0.971-1.628-2.192-3.151-3.588-4.578
			c-9.479-9.699-16.645-7.21-16.645-7.21s3.873-15.466-7.336-26.43s-21.867-6.279-31.115,3.119l-46.608,46.588
			c-6.584-2.472-16.945-8.7-27.615-7.477c-19.006,2.183-23.959,14.89-26.639,25.528c-6.066,24.03-4.262,59.86-11.127,73.704
			c-8.443,17.023-24.977,31.318-24.977,31.318l64.83,64.83c26.395-26.395,51.791-33.231,70.739-41.16
			c42.943-17.965,64.021-39.473,74.744-51.022C366.421,299.637,349.513,278.849,346.386,274.472z"/>
		<g>
			<path d="M255.224,89.976c0.441-1.562,0.101-3.24-0.92-4.503l-7.854-9.732L120.893,177.072l7.885,9.768
				c1.002,1.242,2.547,1.927,4.131,1.854l65.451-3.152l17.924,24.286l38.949-37.446l-17.671-20.054L255.224,89.976z"/>
			<path d="M186.953,1.859c-1.732-2.148-4.881-2.483-7.029-0.751l-9.291,7.497c-1.643,1.326-2.275,3.54-1.582,5.533l5.691,16.367
				l-13.896-9.443c-1.822-1.239-4.238-1.137-5.949,0.244l-29.953,24.171c-1.762,1.422-2.348,3.85-1.43,5.919l7.793,17.558
				l-16.408-10.882c-1.82-1.206-4.207-1.094-5.904,0.276L62.147,96.157c-2.148,1.734-2.484,4.882-0.75,7.031l47.551,58.92
				L234.504,60.779L186.953,1.859z"/>
		</g>
	</g>
</g>
</svg>