<?xml version="1.0" ?><!-- Uploaded to: SVG Repo, www.svgrepo.com, Generator: SVG Repo Mixer Tools -->
<svg fill="#000000" width="800px" height="800px" viewBox="0 0 32 32" data-name="Layer 3" id="Layer_3" xmlns="http://www.w3.org/2000/svg"><title/><path d="M30.06,15.5a0.5,0.5,0,0,0-.5.5,13.52,13.52,0,1,1-1.49-6.14l-1.43-.38a0.5,0.5,0,1,0-.26,1l2.56,0.68,0.13,0a0.49,0.49,0,0,0,.25-0.07,0.5,0.5,0,0,0,.23-0.3l0.67-2.49a0.5,0.5,0,0,0-1-.26L28.91,9.29A14.49,14.49,0,1,0,30.56,16,0.5,0.5,0,0,0,30.06,15.5Z"/><path d="M14.31,14.74a4.5,4.5,0,0,0,.32-0.58,2.6,2.6,0,0,0,.17-0.51,2.19,2.19,0,0,0,0-.45,2.55,2.55,0,0,0-.19-1,2.34,2.34,0,0,0-.54-0.79,2.49,2.49,0,0,0-.83-0.52,3,3,0,0,0-1.08-.19,2.59,2.59,0,0,0-1,.19,2.56,2.56,0,0,0-.82.53,2.59,2.59,0,0,0-.57.81,2.56,2.56,0,0,0-.22,1h1.05a1.67,1.67,0,0,1,.14-0.64,1.41,1.41,0,0,1,.33-0.47,1.39,1.39,0,0,1,.48-0.28,1.79,1.79,0,0,1,1.2,0,1.5,1.5,0,0,1,.49.3,1.42,1.42,0,0,1,.32.45,1.32,1.32,0,0,1,.12.55,1.55,1.55,0,0,1-.1.54,2.77,2.77,0,0,1-.25.5,4.79,4.79,0,0,1-.32.46l-0.33.4L9.63,18.88v0.86h5.21v-1H11l2.77-3.3A6.33,6.33,0,0,0,14.31,14.74Z"/><polygon points="22.24 17.17 22.24 16.16 20.92 16.16 20.92 14.62 19.77 14.7 19.77 16.16 17.5 16.16 20.5 10.86 19.25 10.86 16.1 16.25 16.09 17.17 19.77 17.17 19.77 18.73 18.91 18.73 18.91 19.74 21.8 19.74 21.8 18.73 20.92 18.73 20.92 17.17 22.24 17.17"/></svg>